# xmcd
#
# Track frame offsets:
#	150
#	13350
#	27975
#	39750
#	51600
#	63675
#	78825
#	92250
#	101700
#	114525
#	127875
#	139425
#	151050
#	167625
#
# Disc length: 2470 seconds
#
# Revision: 1
# Processed by: cddbd v1.5.1PL0 Copyright (c) Steve Scherf et al.
# Submitted via: audiograbber 1.83.01
#
DISCID=b409a40e
DTITLE=Various Artist - Country Express
DYEAR=1992
DGENRE=Country
TTITLE0=Little Texas - Dance
TTITLE1=Kimmie Rhodes - It'll Do
TTITLE2=Detour - Deep In The Heart Of Texas
TTITLE3=Tommy Overstreet - Gwen
TTITLE4=Jill Morris - Stand By Your Man
TTITLE5=Tom Russel - Road To Bayamon
TTITLE6=The Lynn Morris Band - Blue Skies And Teardrops
TTITLE7=The McCarters - Up And Gone
TTITLE8=Drifters Caravan - Home On The Range
TTITLE9=Texas Radio - Like A Boat On The Sea
TTITLE10=Jim Eanes - Rigamaroe
TTITLE11=Tommy Overstreet - Heaven Is My Woman's Love
TTITLE12=Tom Russell - Black Pearl
TTITLE13=Jill Morris - Blue Bayou
EXTD=
EXTT0=
EXTT1=
EXTT2=
EXTT3=
EXTT4=
EXTT5=
EXTT6=
EXTT7=
EXTT8=
EXTT9=
EXTT10=
EXTT11=
EXTT12=
EXTT13=
PLAYORDER=
